<?xml version="1.0" encoding="UTF-8" standalone="no"?>
<svg width="149px" height="34px" viewBox="0 0 149 34" version="1.1" xmlns="http://www.w3.org/2000/svg" xmlns:xlink="http://www.w3.org/1999/xlink" xmlns:sketch="http://www.bohemiancoding.com/sketch/ns">
    <!-- Generator: Sketch 3.5.2 (25235) - http://www.bohemiancoding.com/sketch -->
    <title>Mask</title>
    <desc>Created with Sketch.</desc>
    <defs></defs>
    <g id="Page-1" stroke="none" stroke-width="1" fill="none" fill-rule="evenodd" sketch:type="MSPage">
        <g id="Desktop-HD-Copy" sketch:type="MSArtboardGroup" transform="translate(-53.000000, -148.000000)" fill="#000000">
            <path d="M67.5572358,175.438596 C59.9374545,179.812887 55.6331858,182 54.6443007,182 C53.5480948,181.877642 53,181.330864 53,180.359649 C53.582599,177.392473 61.4092388,168.647846 76.4801544,154.125506 L78.3544272,151.074224 L78.1244551,150.844804 C75.5257571,151.150699 70.7500503,153.024274 63.7971915,156.465587 L63.7971915,156.935897 C64.4257851,156.935897 64.7400772,157.092666 64.7400772,157.406208 C64.7400772,157.995055 63.0957929,158.385064 59.807175,158.576248 C59.807175,158.88979 59.4162263,159.046559 58.6343172,159.046559 L58.1628743,158.576248 L58.1628743,158.105938 C61.4438264,155.261119 67.3923793,152.293988 76.0087115,149.204453 L78.3544272,148.975034 L79.0558422,148.975034 C79.8990776,148.975034 80.4471723,149.284747 80.700143,149.904184 L80.700143,150.844804 C80.2401964,152.963124 75.7826145,157.960599 67.3272636,165.837382 C61.2329718,172.100571 57.3196518,176.704214 55.5871865,179.648448 C61.8271281,176.704214 65.6599586,174.520925 67.0857929,173.098516 C67.3310977,173.098516 67.4882438,173.878535 67.5572358,175.438596 L67.5572358,175.438596 Z M66.3276514,175.323887 C66.3276514,172.800257 67.0443907,171.224924 68.4778908,170.597841 C69.1371476,170.873146 69.4974336,171.159918 69.5587598,171.458165 L69.5587598,172.960864 L69.1333114,174.89946 L69.5587598,174.89946 C70.409661,174.89946 70.9845855,174.467391 71.2835508,173.603239 C71.2835508,172.968508 70.3483402,171.607298 68.4778908,169.519568 C69.3671208,168.556001 70.3214956,168.494823 71.3410438,169.336032 L72.5024031,170.666667 L73.1693223,171.813765 L73.3877958,174.119433 L73.9167317,174.486505 C74.2616916,174.670041 74.2578588,174.998873 73.9052331,175.473009 L72.9163529,175.622132 C72.6020561,176.111563 71.3410549,176.513044 69.1333114,176.826586 L68.6963644,176.826586 C67.6614846,176.665991 66.8719215,176.165096 66.3276514,175.323887 L66.3276514,175.323887 Z M77.8500216,176.103914 L77.3095871,176.103914 L75.3893199,175.59919 C75.0290284,175.415654 74.5499246,175.365946 73.951994,175.450067 C73.4307213,174.792394 73.4767152,174.264734 74.0899773,173.867072 L74.1129745,173.809717 L74.4464341,173.511471 C75.2360091,169.710732 76.5468371,167.810391 78.3789575,167.810391 C79.4521662,167.810391 79.9887624,168.433642 79.9887624,169.680162 C79.9887624,170.437251 79.0957129,171.863462 77.3095871,173.958839 L77.3095871,174.222672 L78.3789575,174.497976 C79.9427758,174.497976 81.1999442,174.123261 82.1505005,173.373819 C82.9247438,173.610887 82.8480872,174.245609 81.9205283,175.278003 L80.6211858,175.690958 C79.7472873,175.966263 78.8235752,176.103914 77.8500216,176.103914 L77.8500216,176.103914 Z M76.4701889,171.664642 L77.8040272,170.058704 L77.8040272,169.519568 C77.3594122,169.519568 76.9148039,170.234586 76.4701889,171.664642 L76.4701889,171.664642 Z M79.9082722,162.006073 L80.7591691,162.006073 C81.0428028,162.006073 81.1846175,162.216372 81.1846175,162.636977 C81.1846175,165.328848 80.4755439,166.674764 79.0573753,166.674764 L78.6319269,165.825911 C79.1148708,163.279339 79.5403149,162.006073 79.9082722,162.006073 L79.9082722,162.006073 Z M76.9301331,163.703779 L77.3555816,164.128205 L77.3555816,164.334683 C77.3555816,165.894745 76.7883226,166.674764 75.6537878,166.674764 L75.2283394,166.250337 L75.2283394,165.607962 C75.2283394,164.3385 75.7955983,163.703779 76.9301331,163.703779 L76.9301331,163.703779 Z M98.3765672,176.769231 C95.8008665,178.122814 93.5203324,178.799595 91.5348964,178.799595 C89.1661716,178.256632 87.981827,177.159253 87.981827,175.507422 L87.981827,174.497976 C88.5414287,168.670686 90.9062851,162.346413 95.0764672,155.524966 C99.0703365,150.806544 102.366571,148.447368 104.965269,148.447368 L105.218238,148.447368 L106.241614,149.456815 C106.241614,151.445129 105.225914,153.299587 103.194483,155.020243 L102.688545,154.51552 L104.206361,150.466262 C101.278034,151.628661 98.4072443,154.328139 95.5939045,158.564777 C92.2132973,165.906245 90.523019,170.964898 90.523019,173.740891 L90.523019,175.255061 C90.9906314,176.096271 91.6652095,176.516869 92.5467738,176.516869 C94.7545173,176.516869 97.2036959,175.507432 99.8943833,173.488529 C101.611517,175.80568 101.105583,176.899236 98.3765672,176.769231 L98.3765672,176.769231 Z M107.852186,175.736842 C106.824972,175.736842 106.188722,175.018001 105.943417,173.580297 L105.943417,172.628205 L106.184888,171.676113 L106.184888,171.423752 L105.943417,171.423752 C103.314056,175.736864 101.393808,177.893387 100.182615,177.893387 C99.7839947,177.893387 99.5463592,177.572203 99.4697014,176.929825 L106.426358,154.458165 L106.184888,154.699055 L105.943417,154.699055 C105.621454,154.699055 105.460475,154.458167 105.460475,153.976383 C106.54135,149.992108 107.58388,148 108.588096,148 C109.224356,148.237068 109.542481,148.474133 109.542481,148.711201 L109.542481,148.952092 C109.542481,150.779811 107.384597,158.515002 103.068765,172.157895 C105.153856,169.121892 106.671657,167.603914 107.622213,167.603914 L107.852186,167.603914 L108.588096,168.326586 L108.588096,169.049258 L108.093656,173.350877 L108.818068,173.580297 C109.247352,173.565002 109.730289,173.500001 110.266893,173.38529 C110.328219,173.943548 110.186404,174.555327 109.841444,175.220648 C109.059535,175.564779 108.396456,175.736842 107.852186,175.736842 L107.852186,175.736842 Z M111.865966,170.207827 L112.394902,170.207827 C112.916174,170.207827 113.176807,170.559601 113.176807,171.263158 L112.394902,173.362348 L112.394902,173.603239 L112.647871,173.603239 L113.970211,173.362348 L114.487648,174.130904 C113.920381,175.354482 113.046495,175.966262 111.865966,175.966262 L109.911203,175.300945 L109.508751,174.65857 C109.240449,173.434992 110.026179,171.951426 111.865966,170.207827 L111.865966,170.207827 Z M113.774734,162.751687 C114.296007,163.386418 114.55664,163.998198 114.55664,164.587045 C114.55664,164.984707 114.119697,165.244714 113.245798,165.367072 L112.210924,164.587045 C112.210924,163.363467 112.732189,162.751687 113.774734,162.751687 L113.774734,162.751687 Z M117.765517,168.062753 C118.447771,167.382138 119.022696,167.041835 119.490308,167.041835 L119.674286,167.041835 C120.042243,167.041835 120.226219,167.282724 120.226219,167.764507 L118.949874,170.850202 C120.927644,168.670704 122.265302,167.580972 122.962887,167.580972 C123.445831,167.764508 123.6873,167.948042 123.6873,168.131579 L123.6873,168.487179 L122.962887,172.318489 L122.962887,173.041161 C122.916893,174.46357 123.541644,175.117409 124.83716,175.002699 L125.573071,175.002699 C126.132673,175.010346 126.726762,174.719751 127.355355,174.130904 C127.807636,174.765635 127.753976,175.344914 127.194375,175.868758 C126.634773,176.392603 125.749389,176.708052 124.538197,176.815115 C122.230798,176.815115 121.09628,175.434787 121.134609,172.674089 L121.491066,170.494602 C118.033801,174.257104 115.967905,176.138327 115.293317,176.138327 L114.752882,175.587719 C114.752882,175.12123 115.162995,174.276209 115.983233,173.052632 C115.06334,174.237973 114.204786,175.094464 113.407546,175.622132 L112.993596,175.59919 C113.024259,174.459733 113.258061,173.773393 113.695011,173.540148 C114.13196,173.306904 115.488782,171.481124 117.765517,168.062753 L117.765517,168.062753 Z M126.7122,175.323887 C126.7122,172.800257 127.428939,171.224924 128.862439,170.597841 C129.521696,170.873146 129.881982,171.159918 129.943308,171.458165 L129.943308,172.960864 L129.51786,174.89946 L129.943308,174.89946 C130.794209,174.89946 131.369134,174.467391 131.668099,173.603239 C131.668099,172.968508 130.732888,171.607298 128.862439,169.519568 C129.751669,168.556001 130.706044,168.494823 131.725592,169.336032 L132.886951,170.666667 L133.553871,171.813765 L133.772344,174.119433 L134.30128,174.486505 C134.64624,174.670041 134.642407,174.998873 134.289781,175.473009 L133.300901,175.622132 C132.986604,176.111563 131.725603,176.513044 129.51786,176.826586 L129.080913,176.826586 C128.046033,176.665991 127.25647,176.165096 126.7122,175.323887 L126.7122,175.323887 Z M138.349556,168.062753 C139.03181,167.382138 139.606735,167.041835 140.074347,167.041835 L140.258325,167.041835 C140.626282,167.041835 140.810258,167.282724 140.810258,167.764507 L139.533912,170.850202 C141.511683,168.670704 142.849341,167.580972 143.546926,167.580972 C144.02987,167.764508 144.271338,167.948042 144.271338,168.131579 L144.271338,168.487179 L143.546926,172.318489 L143.546926,173.041161 C143.500931,174.46357 144.125683,175.117409 145.421199,175.002699 L146.15711,175.002699 C146.716711,175.010346 147.3108,174.719751 147.939394,174.130904 C148.391675,174.765635 148.338015,175.344914 147.778413,175.868758 C147.218812,176.392603 146.333428,176.708052 145.122235,176.815115 C142.814837,176.815115 141.680319,175.434787 141.718648,172.674089 L142.075104,170.494602 C138.61784,174.257104 136.551944,176.138327 135.877356,176.138327 L135.336921,175.587719 C135.336921,175.12123 135.747034,174.276209 136.567272,173.052632 C135.647379,174.237973 134.788825,175.094464 133.991584,175.622132 L133.577634,175.59919 C133.608297,174.459733 133.8421,173.773393 134.279049,173.540148 C134.715999,173.306904 136.072821,171.481124 138.349556,168.062753 L138.349556,168.062753 Z M155.609731,175.163293 C154.145568,176.180392 153.413497,176.956588 153.413497,177.491903 C153.060871,179.051965 152.049004,179.831984 150.377865,179.831984 C149.611287,179.831984 149.040196,179.48021 148.664573,178.776653 L148.664573,178.570175 C148.664573,177.973681 149.166673,177.25484 150.17089,176.41363 C148.33877,175.60301 147.422723,174.417687 147.422723,172.857625 C148.288956,169.706912 149.868082,168.131579 152.160149,168.131579 L152.378622,168.131579 C153.037879,168.406884 153.398165,168.693656 153.459491,168.991903 L153.459491,169.198381 C153.091534,171.064337 152.443786,171.997301 151.516227,171.997301 L151.297753,171.354926 L151.7347,170.058704 L151.7347,169.852227 L151.516227,169.852227 C150.220711,170.517547 149.572962,171.377862 149.572962,172.433198 C149.572962,173.534418 150.492842,174.501795 152.332628,175.335358 C153.306182,174.907105 154.141739,174.371798 154.839324,173.72942 C155.490915,174.165319 155.747715,174.643272 155.609731,175.163293 L155.609731,175.163293 Z M150.826311,177.629555 C150.596337,177.973686 150.469854,178.210751 150.446857,178.340756 C150.423859,178.470761 150.525429,178.472673 150.75157,178.346491 C150.97771,178.22031 151.002623,177.981333 150.826311,177.629555 L150.826311,177.629555 Z M154.506631,175.323887 C154.506631,172.800257 155.22337,171.224924 156.656871,170.597841 C157.316127,170.873146 157.676413,171.159918 157.73774,171.458165 L157.73774,172.960864 L157.312291,174.89946 L157.73774,174.89946 C158.588641,174.89946 159.163565,174.467391 159.462531,173.603239 C159.462531,172.968508 158.52732,171.607298 156.656871,169.519568 C157.546101,168.556001 158.500475,168.494823 159.520024,169.336032 L160.681383,170.666667 L161.348302,171.813765 L161.566776,174.119433 L162.095711,174.486505 C162.440671,174.670041 162.436839,174.998873 162.084213,175.473009 L161.095333,175.622132 C160.781036,176.111563 159.520035,176.513044 157.312291,176.826586 L156.875344,176.826586 C155.840464,176.665991 155.050901,176.165096 154.506631,175.323887 L154.506631,175.323887 Z M179.621121,157.979757 C180.464356,157.979757 181.108272,158.381238 181.552887,159.184211 L181.552887,159.906883 C181.391905,160.388666 180.908969,160.629555 180.104062,160.629555 L179.862591,159.906883 L179.37965,159.906883 C176.31334,160.488082 174.780207,161.937235 174.780207,164.254386 L175.021678,164.495277 L175.263149,164.495277 L177.930826,164.254386 L178.413767,164.977058 L178.413767,165.217949 C173.890959,169.133398 171.629589,172.995258 171.629589,176.803644 L171.629589,177.285425 L172.606971,177.526316 C174.638401,177.526316 177.210231,175.996866 180.322536,172.937922 C181.135108,172.494375 181.100613,173.327925 180.219048,175.438596 C176.999422,178.283415 174.136298,179.705803 171.629589,179.705803 C170.180758,179.705803 169.375863,178.738426 169.214882,176.803644 C169.214882,173.821173 170.908993,170.360793 174.297266,166.422402 C173.285384,166.422402 172.721957,165.780033 172.606971,164.495277 C172.606971,161.076906 174.944997,158.905088 179.621121,157.979757 L179.621121,157.979757 Z M184.002856,168.062753 C184.68511,167.382138 185.260035,167.041835 185.727647,167.041835 L185.911625,167.041835 C186.279582,167.041835 186.463558,167.282724 186.463558,167.764507 L185.187213,170.850202 C187.164983,168.670704 188.502641,167.580972 189.200226,167.580972 C189.68317,167.764508 189.924639,167.948042 189.924639,168.131579 L189.924639,168.487179 L189.200226,172.318489 L189.200226,173.041161 C189.154232,174.46357 189.778983,175.117409 191.074499,175.002699 L191.81041,175.002699 C192.370012,175.010346 192.9641,174.719751 193.592694,174.130904 C194.044975,174.765635 193.991315,175.344914 193.431714,175.868758 C192.872112,176.392603 191.986728,176.708052 190.775536,176.815115 C188.468137,176.815115 187.333619,175.434787 187.371948,172.674089 L187.728405,170.494602 C184.27114,174.257104 182.205244,176.138327 181.530656,176.138327 L180.990221,175.587719 C180.990221,175.12123 181.400334,174.276209 182.220572,173.052632 C181.300679,174.237973 180.442125,175.094464 179.644884,175.622132 L179.230935,175.59919 C179.261598,174.459733 179.4954,173.773393 179.93235,173.540148 C180.369299,173.306904 181.726121,171.481124 184.002856,168.062753 L184.002856,168.062753 Z M197.123533,176.103914 L196.583098,176.103914 L194.662831,175.59919 C194.30254,175.415654 193.823436,175.365946 193.225505,175.450067 C192.704232,174.792394 192.750226,174.264734 193.363489,173.867072 L193.386486,173.809717 L193.719945,173.511471 C194.50952,169.710732 195.820348,167.810391 197.652469,167.810391 C198.725677,167.810391 199.262274,168.433642 199.262274,169.680162 C199.262274,170.437251 198.369224,171.863462 196.583098,173.958839 L196.583098,174.222672 L197.652469,174.497976 C199.216287,174.497976 200.473455,174.123261 201.424012,173.373819 C202.198255,173.610887 202.121598,174.245609 201.19404,175.278003 L199.894697,175.690958 C199.020799,175.966263 198.097086,176.103914 197.123533,176.103914 L197.123533,176.103914 Z M195.7437,171.664642 L197.077538,170.058704 L197.077538,169.519568 C196.632923,169.519568 196.188315,170.234586 195.7437,171.664642 L195.7437,171.664642 Z" id="Mask" sketch:type="MSShapeGroup"></path>
        </g>
    </g>
</svg>