<?xml version="1.0" encoding="UTF-8" standalone="no"?>
<svg width="149px" height="34px" viewBox="0 0 149 34" version="1.1" xmlns="http://www.w3.org/2000/svg" xmlns:xlink="http://www.w3.org/1999/xlink">
    <!-- Generator: Sketch 3.6.1 (26313) - http://www.bohemiancoding.com/sketch -->
    <title>ZCE_Logo</title>
    <desc>Created with Sketch.</desc>
    <defs></defs>
    <g id="Page-1" stroke="none" stroke-width="1" fill="none" fill-rule="evenodd">
        <g id="ZCË_1" transform="translate(-770.000000, -17568.000000)" fill="#9B9B9B">
            <g id="ZCE_Logo" transform="translate(770.000000, 17568.000000)">
                <g id="Mask">
                    <g id="Page-1">
                        <g id="Desktop-HD-Copy">
                            <path d="M14.5572358,27.438596 C6.9374545,31.812887 2.6331858,34 1.6443007,34 C0.5480948,33.877642 0,33.330864 0,32.359649 C0.582599,29.392473 8.4092388,20.647846 23.4801544,6.125506 L25.3544272,3.074224 L25.1244551,2.844804 C22.5257571,3.150699 17.7500503,5.024274 10.7971915,8.465587 L10.7971915,8.935897 C11.4257851,8.935897 11.7400772,9.092666 11.7400772,9.406208 C11.7400772,9.995055 10.0957929,10.385064 6.807175,10.576248 C6.807175,10.88979 6.4162263,11.046559 5.6343172,11.046559 L5.1628743,10.576248 L5.1628743,10.105938 C8.4438264,7.261119 14.3923793,4.293988 23.0087115,1.204453 L25.3544272,0.975034 L26.0558422,0.975034 C26.8990776,0.975034 27.4471723,1.284747 27.700143,1.904184 L27.700143,2.844804 C27.2401964,4.963124 22.7826145,9.960599 14.3272636,17.837382 C8.2329718,24.100571 4.3196518,28.704214 2.5871865,31.648448 C8.8271281,28.704214 12.6599586,26.520925 14.0857929,25.098516 C14.3310977,25.098516 14.4882438,25.878535 14.5572358,27.438596 L14.5572358,27.438596 L14.5572358,27.438596 Z M13.3276514,27.323887 C13.3276514,24.800257 14.0443907,23.224924 15.4778908,22.597841 C16.1371476,22.873146 16.4974336,23.159918 16.5587598,23.458165 L16.5587598,24.960864 L16.1333114,26.89946 L16.5587598,26.89946 C17.409661,26.89946 17.9845855,26.467391 18.2835508,25.603239 C18.2835508,24.968508 17.3483402,23.607298 15.4778908,21.519568 C16.3671208,20.556001 17.3214956,20.494823 18.3410438,21.336032 L19.5024031,22.666667 L20.1693223,23.813765 L20.3877958,26.119433 L20.9167317,26.486505 C21.2616916,26.670041 21.2578588,26.998873 20.9052331,27.473009 L19.9163529,27.622132 C19.6020561,28.111563 18.3410549,28.513044 16.1333114,28.826586 L15.6963644,28.826586 C14.6614846,28.665991 13.8719215,28.165096 13.3276514,27.323887 L13.3276514,27.323887 L13.3276514,27.323887 Z M24.8500216,28.103914 L24.3095871,28.103914 L22.3893199,27.59919 C22.0290284,27.415654 21.5499246,27.365946 20.951994,27.450067 C20.4307213,26.792394 20.4767152,26.264734 21.0899773,25.867072 L21.1129745,25.809717 L21.4464341,25.511471 C22.2360091,21.710732 23.5468371,19.810391 25.3789575,19.810391 C26.4521662,19.810391 26.9887624,20.433642 26.9887624,21.680162 C26.9887624,22.437251 26.0957129,23.863462 24.3095871,25.958839 L24.3095871,26.222672 L25.3789575,26.497976 C26.9427758,26.497976 28.1999442,26.123261 29.1505005,25.373819 C29.9247438,25.610887 29.8480872,26.245609 28.9205283,27.278003 L27.6211858,27.690958 C26.7472873,27.966263 25.8235752,28.103914 24.8500216,28.103914 L24.8500216,28.103914 L24.8500216,28.103914 Z M23.4701889,23.664642 L24.8040272,22.058704 L24.8040272,21.519568 C24.3594122,21.519568 23.9148039,22.234586 23.4701889,23.664642 L23.4701889,23.664642 L23.4701889,23.664642 Z M26.9082722,14.006073 L27.7591691,14.006073 C28.0428028,14.006073 28.1846175,14.216372 28.1846175,14.636977 C28.1846175,17.328848 27.4755439,18.674764 26.0573753,18.674764 L25.6319269,17.825911 C26.1148708,15.279339 26.5403149,14.006073 26.9082722,14.006073 L26.9082722,14.006073 L26.9082722,14.006073 Z M23.9301331,15.703779 L24.3555816,16.128205 L24.3555816,16.334683 C24.3555816,17.894745 23.7883226,18.674764 22.6537878,18.674764 L22.2283394,18.250337 L22.2283394,17.607962 C22.2283394,16.3385 22.7955983,15.703779 23.9301331,15.703779 L23.9301331,15.703779 L23.9301331,15.703779 Z M45.3765672,28.769231 C42.8008665,30.122814 40.5203324,30.799595 38.5348964,30.799595 C36.1661716,30.256632 34.981827,29.159253 34.981827,27.507422 L34.981827,26.497976 C35.5414287,20.670686 37.9062851,14.346413 42.0764672,7.524966 C46.0703365,2.806544 49.366571,0.447368 51.965269,0.447368 L52.218238,0.447368 L53.241614,1.456815 C53.241614,3.445129 52.225914,5.299587 50.194483,7.020243 L49.688545,6.51552 L51.206361,2.466262 C48.278034,3.628661 45.4072443,6.328139 42.5939045,10.564777 C39.2132973,17.906245 37.523019,22.964898 37.523019,25.740891 L37.523019,27.255061 C37.9906314,28.096271 38.6652095,28.516869 39.5467738,28.516869 C41.7545173,28.516869 44.2036959,27.507432 46.8943833,25.488529 C48.611517,27.80568 48.105583,28.899236 45.3765672,28.769231 L45.3765672,28.769231 L45.3765672,28.769231 Z M54.852186,27.736842 C53.824972,27.736842 53.188722,27.018001 52.943417,25.580297 L52.943417,24.628205 L53.184888,23.676113 L53.184888,23.423752 L52.943417,23.423752 C50.314056,27.736864 48.393808,29.893387 47.182615,29.893387 C46.7839947,29.893387 46.5463592,29.572203 46.4697014,28.929825 L53.426358,6.458165 L53.184888,6.699055 L52.943417,6.699055 C52.621454,6.699055 52.460475,6.458167 52.460475,5.976383 C53.54135,1.992108 54.58388,0 55.588096,0 C56.224356,0.237068 56.542481,0.474133 56.542481,0.711201 L56.542481,0.952092 C56.542481,2.779811 54.384597,10.515002 50.068765,24.157895 C52.153856,21.121892 53.671657,19.603914 54.622213,19.603914 L54.852186,19.603914 L55.588096,20.326586 L55.588096,21.049258 L55.093656,25.350877 L55.818068,25.580297 C56.247352,25.565002 56.730289,25.500001 57.266893,25.38529 C57.328219,25.943548 57.186404,26.555327 56.841444,27.220648 C56.059535,27.564779 55.396456,27.736842 54.852186,27.736842 L54.852186,27.736842 L54.852186,27.736842 Z M58.865966,22.207827 L59.394902,22.207827 C59.916174,22.207827 60.176807,22.559601 60.176807,23.263158 L59.394902,25.362348 L59.394902,25.603239 L59.647871,25.603239 L60.970211,25.362348 L61.487648,26.130904 C60.920381,27.354482 60.046495,27.966262 58.865966,27.966262 L56.911203,27.300945 L56.508751,26.65857 C56.240449,25.434992 57.026179,23.951426 58.865966,22.207827 L58.865966,22.207827 L58.865966,22.207827 Z M60.774734,14.751687 C61.296007,15.386418 61.55664,15.998198 61.55664,16.587045 C61.55664,16.984707 61.119697,17.244714 60.245798,17.367072 L59.210924,16.587045 C59.210924,15.363467 59.732189,14.751687 60.774734,14.751687 L60.774734,14.751687 L60.774734,14.751687 Z M64.765517,20.062753 C65.447771,19.382138 66.022696,19.041835 66.490308,19.041835 L66.674286,19.041835 C67.042243,19.041835 67.226219,19.282724 67.226219,19.764507 L65.949874,22.850202 C67.927644,20.670704 69.265302,19.580972 69.962887,19.580972 C70.445831,19.764508 70.6873,19.948042 70.6873,20.131579 L70.6873,20.487179 L69.962887,24.318489 L69.962887,25.041161 C69.916893,26.46357 70.541644,27.117409 71.83716,27.002699 L72.573071,27.002699 C73.132673,27.010346 73.726762,26.719751 74.355355,26.130904 C74.807636,26.765635 74.753976,27.344914 74.194375,27.868758 C73.634773,28.392603 72.749389,28.708052 71.538197,28.815115 C69.230798,28.815115 68.09628,27.434787 68.134609,24.674089 L68.491066,22.494602 C65.033801,26.257104 62.967905,28.138327 62.293317,28.138327 L61.752882,27.587719 C61.752882,27.12123 62.162995,26.276209 62.983233,25.052632 C62.06334,26.237973 61.204786,27.094464 60.407546,27.622132 L59.993596,27.59919 C60.024259,26.459733 60.258061,25.773393 60.695011,25.540148 C61.13196,25.306904 62.488782,23.481124 64.765517,20.062753 L64.765517,20.062753 L64.765517,20.062753 Z M73.7122,27.323887 C73.7122,24.800257 74.428939,23.224924 75.862439,22.597841 C76.521696,22.873146 76.881982,23.159918 76.943308,23.458165 L76.943308,24.960864 L76.51786,26.89946 L76.943308,26.89946 C77.794209,26.89946 78.369134,26.467391 78.668099,25.603239 C78.668099,24.968508 77.732888,23.607298 75.862439,21.519568 C76.751669,20.556001 77.706044,20.494823 78.725592,21.336032 L79.886951,22.666667 L80.553871,23.813765 L80.772344,26.119433 L81.30128,26.486505 C81.64624,26.670041 81.642407,26.998873 81.289781,27.473009 L80.300901,27.622132 C79.986604,28.111563 78.725603,28.513044 76.51786,28.826586 L76.080913,28.826586 C75.046033,28.665991 74.25647,28.165096 73.7122,27.323887 L73.7122,27.323887 L73.7122,27.323887 Z M85.349556,20.062753 C86.03181,19.382138 86.606735,19.041835 87.074347,19.041835 L87.258325,19.041835 C87.626282,19.041835 87.810258,19.282724 87.810258,19.764507 L86.533912,22.850202 C88.511683,20.670704 89.849341,19.580972 90.546926,19.580972 C91.02987,19.764508 91.271338,19.948042 91.271338,20.131579 L91.271338,20.487179 L90.546926,24.318489 L90.546926,25.041161 C90.500931,26.46357 91.125683,27.117409 92.421199,27.002699 L93.15711,27.002699 C93.716711,27.010346 94.3108,26.719751 94.939394,26.130904 C95.391675,26.765635 95.338015,27.344914 94.778413,27.868758 C94.218812,28.392603 93.333428,28.708052 92.122235,28.815115 C89.814837,28.815115 88.680319,27.434787 88.718648,24.674089 L89.075104,22.494602 C85.61784,26.257104 83.551944,28.138327 82.877356,28.138327 L82.336921,27.587719 C82.336921,27.12123 82.747034,26.276209 83.567272,25.052632 C82.647379,26.237973 81.788825,27.094464 80.991584,27.622132 L80.577634,27.59919 C80.608297,26.459733 80.8421,25.773393 81.279049,25.540148 C81.715999,25.306904 83.072821,23.481124 85.349556,20.062753 L85.349556,20.062753 L85.349556,20.062753 Z M102.609731,27.163293 C101.145568,28.180392 100.413497,28.956588 100.413497,29.491903 C100.060871,31.051965 99.049004,31.831984 97.377865,31.831984 C96.611287,31.831984 96.040196,31.48021 95.664573,30.776653 L95.664573,30.570175 C95.664573,29.973681 96.166673,29.25484 97.17089,28.41363 C95.33877,27.60301 94.422723,26.417687 94.422723,24.857625 C95.288956,21.706912 96.868082,20.131579 99.160149,20.131579 L99.378622,20.131579 C100.037879,20.406884 100.398165,20.693656 100.459491,20.991903 L100.459491,21.198381 C100.091534,23.064337 99.443786,23.997301 98.516227,23.997301 L98.297753,23.354926 L98.7347,22.058704 L98.7347,21.852227 L98.516227,21.852227 C97.220711,22.517547 96.572962,23.377862 96.572962,24.433198 C96.572962,25.534418 97.492842,26.501795 99.332628,27.335358 C100.306182,26.907105 101.141739,26.371798 101.839324,25.72942 C102.490915,26.165319 102.747715,26.643272 102.609731,27.163293 L102.609731,27.163293 L102.609731,27.163293 Z M97.826311,29.629555 C97.596337,29.973686 97.469854,30.210751 97.446857,30.340756 C97.423859,30.470761 97.525429,30.472673 97.75157,30.346491 C97.97771,30.22031 98.002623,29.981333 97.826311,29.629555 L97.826311,29.629555 L97.826311,29.629555 Z M101.506631,27.323887 C101.506631,24.800257 102.22337,23.224924 103.656871,22.597841 C104.316127,22.873146 104.676413,23.159918 104.73774,23.458165 L104.73774,24.960864 L104.312291,26.89946 L104.73774,26.89946 C105.588641,26.89946 106.163565,26.467391 106.462531,25.603239 C106.462531,24.968508 105.52732,23.607298 103.656871,21.519568 C104.546101,20.556001 105.500475,20.494823 106.520024,21.336032 L107.681383,22.666667 L108.348302,23.813765 L108.566776,26.119433 L109.095711,26.486505 C109.440671,26.670041 109.436839,26.998873 109.084213,27.473009 L108.095333,27.622132 C107.781036,28.111563 106.520035,28.513044 104.312291,28.826586 L103.875344,28.826586 C102.840464,28.665991 102.050901,28.165096 101.506631,27.323887 L101.506631,27.323887 L101.506631,27.323887 Z M126.621121,9.979757 C127.464356,9.979757 128.108272,10.381238 128.552887,11.184211 L128.552887,11.906883 C128.391905,12.388666 127.908969,12.629555 127.104062,12.629555 L126.862591,11.906883 L126.37965,11.906883 C123.31334,12.488082 121.780207,13.937235 121.780207,16.254386 L122.021678,16.495277 L122.263149,16.495277 L124.930826,16.254386 L125.413767,16.977058 L125.413767,17.217949 C120.890959,21.133398 118.629589,24.995258 118.629589,28.803644 L118.629589,29.285425 L119.606971,29.526316 C121.638401,29.526316 124.210231,27.996866 127.322536,24.937922 C128.135108,24.494375 128.100613,25.327925 127.219048,27.438596 C123.999422,30.283415 121.136298,31.705803 118.629589,31.705803 C117.180758,31.705803 116.375863,30.738426 116.214882,28.803644 C116.214882,25.821173 117.908993,22.360793 121.297266,18.422402 C120.285384,18.422402 119.721957,17.780033 119.606971,16.495277 C119.606971,13.076906 121.944997,10.905088 126.621121,9.979757 L126.621121,9.979757 L126.621121,9.979757 Z M131.002856,20.062753 C131.68511,19.382138 132.260035,19.041835 132.727647,19.041835 L132.911625,19.041835 C133.279582,19.041835 133.463558,19.282724 133.463558,19.764507 L132.187213,22.850202 C134.164983,20.670704 135.502641,19.580972 136.200226,19.580972 C136.68317,19.764508 136.924639,19.948042 136.924639,20.131579 L136.924639,20.487179 L136.200226,24.318489 L136.200226,25.041161 C136.154232,26.46357 136.778983,27.117409 138.074499,27.002699 L138.81041,27.002699 C139.370012,27.010346 139.9641,26.719751 140.592694,26.130904 C141.044975,26.765635 140.991315,27.344914 140.431714,27.868758 C139.872112,28.392603 138.986728,28.708052 137.775536,28.815115 C135.468137,28.815115 134.333619,27.434787 134.371948,24.674089 L134.728405,22.494602 C131.27114,26.257104 129.205244,28.138327 128.530656,28.138327 L127.990221,27.587719 C127.990221,27.12123 128.400334,26.276209 129.220572,25.052632 C128.300679,26.237973 127.442125,27.094464 126.644884,27.622132 L126.230935,27.59919 C126.261598,26.459733 126.4954,25.773393 126.93235,25.540148 C127.369299,25.306904 128.726121,23.481124 131.002856,20.062753 L131.002856,20.062753 L131.002856,20.062753 Z M144.123533,28.103914 L143.583098,28.103914 L141.662831,27.59919 C141.30254,27.415654 140.823436,27.365946 140.225505,27.450067 C139.704232,26.792394 139.750226,26.264734 140.363489,25.867072 L140.386486,25.809717 L140.719945,25.511471 C141.50952,21.710732 142.820348,19.810391 144.652469,19.810391 C145.725677,19.810391 146.262274,20.433642 146.262274,21.680162 C146.262274,22.437251 145.369224,23.863462 143.583098,25.958839 L143.583098,26.222672 L144.652469,26.497976 C146.216287,26.497976 147.473455,26.123261 148.424012,25.373819 C149.198255,25.610887 149.121598,26.245609 148.19404,27.278003 L146.894697,27.690958 C146.020799,27.966263 145.097086,28.103914 144.123533,28.103914 L144.123533,28.103914 L144.123533,28.103914 Z M142.7437,23.664642 L144.077538,22.058704 L144.077538,21.519568 C143.632923,21.519568 143.188315,22.234586 142.7437,23.664642 L142.7437,23.664642 L142.7437,23.664642 Z" id="Mask"></path>
                        </g>
                    </g>
                </g>
            </g>
        </g>
    </g>
</svg>